<?xml version="1.0" encoding="utf-8"?>
<!-- Generator: Adobe Illustrator 25.0.0, SVG Export Plug-In . SVG Version: 6.00 Build 0)  -->
<svg version="1.1" xmlns="http://www.w3.org/2000/svg" xmlns:xlink="http://www.w3.org/1999/xlink" x="0px" y="0px"
	 viewBox="0 0 86 78" style="enable-background:new 0 0 86 78;" xml:space="preserve">
<style type="text/css">
	.st0{display:none;}
	.st1{display:inline;opacity:0.3;}
	.st2{fill:url(#SVGID_1_);filter:url(#Adobe_OpacityMaskFilter);}
	.st3{mask:url(#mask0_4_189_1_);}
	.st4{fill:url(#SVGID_2_);}
	.st5{fill:url(#SVGID_3_);filter:url(#Adobe_OpacityMaskFilter_1_);}
	.st6{mask:url(#mask1_4_189_1_);}
	.st7{fill:url(#SVGID_4_);}
	.st8{fill:url(#SVGID_5_);filter:url(#Adobe_OpacityMaskFilter_2_);}
	.st9{mask:url(#mask2_4_189_1_);}
	.st10{fill:url(#SVGID_6_);}
	.st11{fill:url(#SVGID_7_);filter:url(#Adobe_OpacityMaskFilter_3_);}
	.st12{mask:url(#mask3_4_189_1_);}
	.st13{fill:url(#SVGID_8_);}
	.st14{fill:url(#SVGID_9_);filter:url(#Adobe_OpacityMaskFilter_4_);}
	.st15{mask:url(#mask4_4_189_1_);}
	.st16{fill:url(#SVGID_10_);}
	.st17{fill:url(#SVGID_11_);filter:url(#Adobe_OpacityMaskFilter_5_);}
	.st18{mask:url(#mask5_4_189_1_);}
	.st19{fill:url(#SVGID_12_);}
	.st20{fill:url(#SVGID_13_);filter:url(#Adobe_OpacityMaskFilter_6_);}
	.st21{mask:url(#mask6_4_189_1_);}
	.st22{fill:url(#SVGID_14_);}
	.st23{fill:url(#SVGID_15_);filter:url(#Adobe_OpacityMaskFilter_7_);}
	.st24{mask:url(#mask7_4_189_1_);}
	.st25{fill:url(#SVGID_16_);}
	.st26{fill:url(#SVGID_17_);filter:url(#Adobe_OpacityMaskFilter_8_);}
	.st27{mask:url(#mask8_4_189_1_);}
	.st28{fill:url(#SVGID_18_);}
	.st29{fill:url(#SVGID_19_);filter:url(#Adobe_OpacityMaskFilter_9_);}
	.st30{mask:url(#mask9_4_189_1_);}
	.st31{fill:url(#SVGID_20_);}
	.st32{fill:url(#SVGID_21_);filter:url(#Adobe_OpacityMaskFilter_10_);}
	.st33{mask:url(#mask10_4_189_1_);}
	.st34{fill:url(#SVGID_22_);}
	.st35{fill:url(#SVGID_23_);filter:url(#Adobe_OpacityMaskFilter_11_);}
	.st36{mask:url(#mask11_4_189_1_);}
	.st37{fill:url(#SVGID_24_);}
	.st38{fill:url(#SVGID_25_);filter:url(#Adobe_OpacityMaskFilter_12_);}
	.st39{mask:url(#mask12_4_189_1_);}
	.st40{fill:url(#SVGID_26_);}
	.st41{fill:url(#SVGID_27_);filter:url(#Adobe_OpacityMaskFilter_13_);}
	.st42{mask:url(#mask13_4_189_1_);}
	.st43{fill:url(#SVGID_28_);}
	.st44{fill:url(#SVGID_29_);filter:url(#Adobe_OpacityMaskFilter_14_);}
	.st45{mask:url(#mask14_4_189_1_);}
	.st46{fill:url(#SVGID_30_);}
	.st47{fill:url(#SVGID_31_);filter:url(#Adobe_OpacityMaskFilter_15_);}
	.st48{mask:url(#mask15_4_189_1_);}
	.st49{fill:url(#SVGID_32_);}
	.st50{fill:#D89A41;stroke:#000000;stroke-miterlimit:10;}
	.st51{fill:#E2A84B;stroke:#000000;stroke-miterlimit:10;}
	.st52{fill:#BC8433;}
	.st53{fill:none;stroke:#000000;stroke-linecap:round;stroke-linejoin:round;stroke-dasharray:27.0519,10.8208;}
</style>
<g id="Layer_1" class="st0">
	<g class="st1">
		<defs>
			<filter id="Adobe_OpacityMaskFilter" filterUnits="userSpaceOnUse" x="0" y="0" width="7.8" height="8">
				<feColorMatrix  type="matrix" values="1 0 0 0 0  0 1 0 0 0  0 0 1 0 0  0 0 0 1 0"/>
			</filter>
		</defs>
		<mask maskUnits="userSpaceOnUse" x="0" y="0" width="7.8" height="8" id="mask0_4_189_1_">
			
				<linearGradient id="SVGID_1_" gradientUnits="userSpaceOnUse" x1="39.2769" y1="-11.9881" x2="-16.2851" y2="126.259" gradientTransform="matrix(1 0 0 -1 0 80)">
				<stop  offset="0" style="stop-color:#FFA434"/>
				<stop  offset="1" style="stop-color:#FFA434"/>
			</linearGradient>
			<path class="st2" d="M3.9,8c2.2,0,3.9-1.8,3.9-4c0-2.2-1.8-4-3.9-4C1.8,0,0,1.8,0,4C0,6.2,1.8,8,3.9,8z"/>
		</mask>
		<g class="st3">
			
				<linearGradient id="SVGID_2_" gradientUnits="userSpaceOnUse" x1="39.2769" y1="-11.9881" x2="-16.2851" y2="126.259" gradientTransform="matrix(1 0 0 -1 0 80)">
				<stop  offset="0" style="stop-color:#FFA434"/>
				<stop  offset="1" style="stop-color:#FFA434"/>
			</linearGradient>
			<path class="st4" d="M3.9,8c2.2,0,3.9-1.8,3.9-4c0-2.2-1.8-4-3.9-4C1.8,0,0,1.8,0,4C0,6.2,1.8,8,3.9,8z"/>
		</g>
		<defs>
			<filter id="Adobe_OpacityMaskFilter_1_" filterUnits="userSpaceOnUse" x="22.6" y="0" width="7.8" height="8">
				<feColorMatrix  type="matrix" values="1 0 0 0 0  0 1 0 0 0  0 0 1 0 0  0 0 0 1 0"/>
			</filter>
		</defs>
		<mask maskUnits="userSpaceOnUse" x="22.6" y="0" width="7.8" height="8" id="mask1_4_189_1_">
			
				<linearGradient id="SVGID_3_" gradientUnits="userSpaceOnUse" x1="61.9195" y1="-11.9881" x2="6.3575" y2="126.259" gradientTransform="matrix(1 0 0 -1 0 80)">
				<stop  offset="0" style="stop-color:#FFA434"/>
				<stop  offset="1" style="stop-color:#FFA434"/>
			</linearGradient>
			<path class="st5" d="M26.6,8c2.2,0,3.9-1.8,3.9-4c0-2.2-1.8-4-3.9-4s-3.9,1.8-3.9,4C22.6,6.2,24.4,8,26.6,8z"/>
		</mask>
		<g class="st6">
			
				<linearGradient id="SVGID_4_" gradientUnits="userSpaceOnUse" x1="61.9195" y1="-11.9881" x2="6.3575" y2="126.259" gradientTransform="matrix(1 0 0 -1 0 80)">
				<stop  offset="0" style="stop-color:#FFA434"/>
				<stop  offset="1" style="stop-color:#FFA434"/>
			</linearGradient>
			<path class="st7" d="M26.6,8c2.2,0,3.9-1.8,3.9-4c0-2.2-1.8-4-3.9-4s-3.9,1.8-3.9,4C22.6,6.2,24.4,8,26.6,8z"/>
		</g>
		<defs>
			<filter id="Adobe_OpacityMaskFilter_2_" filterUnits="userSpaceOnUse" x="45.3" y="0" width="7.8" height="8">
				<feColorMatrix  type="matrix" values="1 0 0 0 0  0 1 0 0 0  0 0 1 0 0  0 0 0 1 0"/>
			</filter>
		</defs>
		<mask maskUnits="userSpaceOnUse" x="45.3" y="0" width="7.8" height="8" id="mask2_4_189_1_">
			
				<linearGradient id="SVGID_5_" gradientUnits="userSpaceOnUse" x1="84.563" y1="-11.9881" x2="29.001" y2="126.259" gradientTransform="matrix(1 0 0 -1 0 80)">
				<stop  offset="0" style="stop-color:#FFA434"/>
				<stop  offset="1" style="stop-color:#FFA434"/>
			</linearGradient>
			<path class="st8" d="M49.2,8c2.2,0,3.9-1.8,3.9-4c0-2.2-1.8-4-3.9-4c-2.2,0-3.9,1.8-3.9,4C45.3,6.2,47,8,49.2,8z"/>
		</mask>
		<g class="st9">
			
				<linearGradient id="SVGID_6_" gradientUnits="userSpaceOnUse" x1="84.564" y1="-11.9881" x2="29.0021" y2="126.259" gradientTransform="matrix(1 0 0 -1 0 80)">
				<stop  offset="0" style="stop-color:#FFA434"/>
				<stop  offset="1" style="stop-color:#FFA434"/>
			</linearGradient>
			<path class="st10" d="M49.2,8c2.2,0,3.9-1.8,3.9-4c0-2.2-1.8-4-3.9-4c-2.2,0-3.9,1.8-3.9,4C45.3,6.2,47,8,49.2,8z"/>
		</g>
		<defs>
			<filter id="Adobe_OpacityMaskFilter_3_" filterUnits="userSpaceOnUse" x="67.9" y="0" width="7.8" height="8">
				<feColorMatrix  type="matrix" values="1 0 0 0 0  0 1 0 0 0  0 0 1 0 0  0 0 0 1 0"/>
			</filter>
		</defs>
		<mask maskUnits="userSpaceOnUse" x="67.9" y="0" width="7.8" height="8" id="mask3_4_189_1_">
			
				<linearGradient id="SVGID_7_" gradientUnits="userSpaceOnUse" x1="107.2058" y1="-11.9881" x2="51.6436" y2="126.259" gradientTransform="matrix(1 0 0 -1 0 80)">
				<stop  offset="0" style="stop-color:#FFA434"/>
				<stop  offset="1" style="stop-color:#FFA434"/>
			</linearGradient>
			<path class="st11" d="M71.8,8c2.2,0,3.9-1.8,3.9-4c0-2.2-1.8-4-3.9-4c-2.2,0-3.9,1.8-3.9,4C67.9,6.2,69.7,8,71.8,8z"/>
		</mask>
		<g class="st12">
			
				<linearGradient id="SVGID_8_" gradientUnits="userSpaceOnUse" x1="107.2068" y1="-11.9881" x2="51.6445" y2="126.259" gradientTransform="matrix(1 0 0 -1 0 80)">
				<stop  offset="0" style="stop-color:#FFA434"/>
				<stop  offset="1" style="stop-color:#FFA434"/>
			</linearGradient>
			<path class="st13" d="M71.8,8c2.2,0,3.9-1.8,3.9-4c0-2.2-1.8-4-3.9-4c-2.2,0-3.9,1.8-3.9,4C67.9,6.2,69.7,8,71.8,8z"/>
		</g>
		<defs>
			<filter id="Adobe_OpacityMaskFilter_4_" filterUnits="userSpaceOnUse" x="0" y="20" width="7.8" height="8">
				<feColorMatrix  type="matrix" values="1 0 0 0 0  0 1 0 0 0  0 0 1 0 0  0 0 0 1 0"/>
			</filter>
		</defs>
		<mask maskUnits="userSpaceOnUse" x="0" y="20" width="7.8" height="8" id="mask4_4_189_1_">
			
				<linearGradient id="SVGID_9_" gradientUnits="userSpaceOnUse" x1="39.2763" y1="-32.0136" x2="-16.2848" y2="106.2323" gradientTransform="matrix(1 0 0 -1 0 80)">
				<stop  offset="0" style="stop-color:#FFA434"/>
				<stop  offset="1" style="stop-color:#FFA434"/>
			</linearGradient>
			<path class="st14" d="M3.9,28c2.2,0,3.9-1.8,3.9-4s-1.8-4-3.9-4C1.8,20,0,21.8,0,24S1.8,28,3.9,28z"/>
		</mask>
		<g class="st15">
			
				<linearGradient id="SVGID_10_" gradientUnits="userSpaceOnUse" x1="39.2763" y1="-32.0136" x2="-16.2848" y2="106.2323" gradientTransform="matrix(1 0 0 -1 0 80)">
				<stop  offset="0" style="stop-color:#FFA434"/>
				<stop  offset="1" style="stop-color:#FFA434"/>
			</linearGradient>
			<path class="st16" d="M3.9,28c2.2,0,3.9-1.8,3.9-4s-1.8-4-3.9-4C1.8,20,0,21.8,0,24S1.8,28,3.9,28z"/>
		</g>
		<defs>
			<filter id="Adobe_OpacityMaskFilter_5_" filterUnits="userSpaceOnUse" x="22.6" y="20" width="7.8" height="8">
				<feColorMatrix  type="matrix" values="1 0 0 0 0  0 1 0 0 0  0 0 1 0 0  0 0 0 1 0"/>
			</filter>
		</defs>
		<mask maskUnits="userSpaceOnUse" x="22.6" y="20" width="7.8" height="8" id="mask5_4_189_1_">
			
				<linearGradient id="SVGID_11_" gradientUnits="userSpaceOnUse" x1="61.9188" y1="-32.0136" x2="6.3578" y2="106.2324" gradientTransform="matrix(1 0 0 -1 0 80)">
				<stop  offset="0" style="stop-color:#FFA434"/>
				<stop  offset="1" style="stop-color:#FFA434"/>
			</linearGradient>
			<path class="st17" d="M26.6,28c2.2,0,3.9-1.8,3.9-4s-1.8-4-3.9-4s-3.9,1.8-3.9,4S24.4,28,26.6,28z"/>
		</mask>
		<g class="st18">
			
				<linearGradient id="SVGID_12_" gradientUnits="userSpaceOnUse" x1="61.9188" y1="-32.0136" x2="6.3578" y2="106.2324" gradientTransform="matrix(1 0 0 -1 0 80)">
				<stop  offset="0" style="stop-color:#FFA434"/>
				<stop  offset="1" style="stop-color:#FFA434"/>
			</linearGradient>
			<path class="st19" d="M26.6,28c2.2,0,3.9-1.8,3.9-4s-1.8-4-3.9-4s-3.9,1.8-3.9,4S24.4,28,26.6,28z"/>
		</g>
		<defs>
			<filter id="Adobe_OpacityMaskFilter_6_" filterUnits="userSpaceOnUse" x="45.3" y="20" width="7.8" height="8">
				<feColorMatrix  type="matrix" values="1 0 0 0 0  0 1 0 0 0  0 0 1 0 0  0 0 0 1 0"/>
			</filter>
		</defs>
		<mask maskUnits="userSpaceOnUse" x="45.3" y="20" width="7.8" height="8" id="mask6_4_189_1_">
			
				<linearGradient id="SVGID_13_" gradientUnits="userSpaceOnUse" x1="84.5624" y1="-32.0136" x2="29.0013" y2="106.2324" gradientTransform="matrix(1 0 0 -1 0 80)">
				<stop  offset="0" style="stop-color:#FFA434"/>
				<stop  offset="1" style="stop-color:#FFA434"/>
			</linearGradient>
			<path class="st20" d="M49.2,28c2.2,0,3.9-1.8,3.9-4s-1.8-4-3.9-4c-2.2,0-3.9,1.8-3.9,4S47,28,49.2,28z"/>
		</mask>
		<g class="st21">
			
				<linearGradient id="SVGID_14_" gradientUnits="userSpaceOnUse" x1="84.5634" y1="-32.0136" x2="29.0024" y2="106.2324" gradientTransform="matrix(1 0 0 -1 0 80)">
				<stop  offset="0" style="stop-color:#FFA434"/>
				<stop  offset="1" style="stop-color:#FFA434"/>
			</linearGradient>
			<path class="st22" d="M49.2,28c2.2,0,3.9-1.8,3.9-4s-1.8-4-3.9-4c-2.2,0-3.9,1.8-3.9,4S47,28,49.2,28z"/>
		</g>
		<defs>
			<filter id="Adobe_OpacityMaskFilter_7_" filterUnits="userSpaceOnUse" x="67.9" y="20" width="7.8" height="8">
				<feColorMatrix  type="matrix" values="1 0 0 0 0  0 1 0 0 0  0 0 1 0 0  0 0 0 1 0"/>
			</filter>
		</defs>
		<mask maskUnits="userSpaceOnUse" x="67.9" y="20" width="7.8" height="8" id="mask7_4_189_1_">
			
				<linearGradient id="SVGID_15_" gradientUnits="userSpaceOnUse" x1="107.2052" y1="-32.0137" x2="51.6439" y2="106.2324" gradientTransform="matrix(1 0 0 -1 0 80)">
				<stop  offset="0" style="stop-color:#FFA434"/>
				<stop  offset="1" style="stop-color:#FFA434"/>
			</linearGradient>
			<path class="st23" d="M71.8,28c2.2,0,3.9-1.8,3.9-4s-1.8-4-3.9-4c-2.2,0-3.9,1.8-3.9,4S69.7,28,71.8,28z"/>
		</mask>
		<g class="st24">
			
				<linearGradient id="SVGID_16_" gradientUnits="userSpaceOnUse" x1="107.2061" y1="-32.0137" x2="51.6448" y2="106.2323" gradientTransform="matrix(1 0 0 -1 0 80)">
				<stop  offset="0" style="stop-color:#FFA434"/>
				<stop  offset="1" style="stop-color:#FFA434"/>
			</linearGradient>
			<path class="st25" d="M71.8,28c2.2,0,3.9-1.8,3.9-4s-1.8-4-3.9-4c-2.2,0-3.9,1.8-3.9,4S69.7,28,71.8,28z"/>
		</g>
		<defs>
			<filter id="Adobe_OpacityMaskFilter_8_" filterUnits="userSpaceOnUse" x="0" y="40" width="7.8" height="8">
				<feColorMatrix  type="matrix" values="1 0 0 0 0  0 1 0 0 0  0 0 1 0 0  0 0 0 1 0"/>
			</filter>
		</defs>
		<mask maskUnits="userSpaceOnUse" x="0" y="40" width="7.8" height="8" id="mask8_4_189_1_">
			
				<linearGradient id="SVGID_17_" gradientUnits="userSpaceOnUse" x1="39.2769" y1="-51.9993" x2="-16.2851" y2="86.2478" gradientTransform="matrix(1 0 0 -1 0 80)">
				<stop  offset="0" style="stop-color:#FFA434"/>
				<stop  offset="1" style="stop-color:#FFA434"/>
			</linearGradient>
			<path class="st26" d="M3.9,48c2.2,0,3.9-1.8,3.9-4s-1.8-4-3.9-4C1.8,40,0,41.8,0,44S1.8,48,3.9,48z"/>
		</mask>
		<g class="st27">
			
				<linearGradient id="SVGID_18_" gradientUnits="userSpaceOnUse" x1="39.2769" y1="-51.9993" x2="-16.2851" y2="86.2478" gradientTransform="matrix(1 0 0 -1 0 80)">
				<stop  offset="0" style="stop-color:#FFA434"/>
				<stop  offset="1" style="stop-color:#FFA434"/>
			</linearGradient>
			<path class="st28" d="M3.9,48c2.2,0,3.9-1.8,3.9-4s-1.8-4-3.9-4C1.8,40,0,41.8,0,44S1.8,48,3.9,48z"/>
		</g>
		<defs>
			<filter id="Adobe_OpacityMaskFilter_9_" filterUnits="userSpaceOnUse" x="22.6" y="40" width="7.8" height="8">
				<feColorMatrix  type="matrix" values="1 0 0 0 0  0 1 0 0 0  0 0 1 0 0  0 0 0 1 0"/>
			</filter>
		</defs>
		<mask maskUnits="userSpaceOnUse" x="22.6" y="40" width="7.8" height="8" id="mask9_4_189_1_">
			
				<linearGradient id="SVGID_19_" gradientUnits="userSpaceOnUse" x1="61.9194" y1="-51.9994" x2="6.3574" y2="86.2473" gradientTransform="matrix(1 0 0 -1 0 80)">
				<stop  offset="0" style="stop-color:#FFA434"/>
				<stop  offset="1" style="stop-color:#FFA434"/>
			</linearGradient>
			<path class="st29" d="M26.6,48c2.2,0,3.9-1.8,3.9-4s-1.8-4-3.9-4s-3.9,1.8-3.9,4S24.4,48,26.6,48z"/>
		</mask>
		<g class="st30">
			
				<linearGradient id="SVGID_20_" gradientUnits="userSpaceOnUse" x1="61.9194" y1="-51.9994" x2="6.3574" y2="86.2473" gradientTransform="matrix(1 0 0 -1 0 80)">
				<stop  offset="0" style="stop-color:#FFA434"/>
				<stop  offset="1" style="stop-color:#FFA434"/>
			</linearGradient>
			<path class="st31" d="M26.6,48c2.2,0,3.9-1.8,3.9-4s-1.8-4-3.9-4s-3.9,1.8-3.9,4S24.4,48,26.6,48z"/>
		</g>
		<defs>
			<filter id="Adobe_OpacityMaskFilter_10_" filterUnits="userSpaceOnUse" x="45.3" y="40" width="7.8" height="8">
				<feColorMatrix  type="matrix" values="1 0 0 0 0  0 1 0 0 0  0 0 1 0 0  0 0 0 1 0"/>
			</filter>
		</defs>
		<mask maskUnits="userSpaceOnUse" x="45.3" y="40" width="7.8" height="8" id="mask10_4_189_1_">
			
				<linearGradient id="SVGID_21_" gradientUnits="userSpaceOnUse" x1="84.563" y1="-51.9994" x2="29.001" y2="86.2473" gradientTransform="matrix(1 0 0 -1 0 80)">
				<stop  offset="0" style="stop-color:#FFA434"/>
				<stop  offset="1" style="stop-color:#FFA434"/>
			</linearGradient>
			<path class="st32" d="M49.2,48c2.2,0,3.9-1.8,3.9-4s-1.8-4-3.9-4c-2.2,0-3.9,1.8-3.9,4S47,48,49.2,48z"/>
		</mask>
		<g class="st33">
			
				<linearGradient id="SVGID_22_" gradientUnits="userSpaceOnUse" x1="84.5639" y1="-51.9994" x2="29.002" y2="86.2473" gradientTransform="matrix(1 0 0 -1 0 80)">
				<stop  offset="0" style="stop-color:#FFA434"/>
				<stop  offset="1" style="stop-color:#FFA434"/>
			</linearGradient>
			<path class="st34" d="M49.2,48c2.2,0,3.9-1.8,3.9-4s-1.8-4-3.9-4c-2.2,0-3.9,1.8-3.9,4S47,48,49.2,48z"/>
		</g>
		<defs>
			<filter id="Adobe_OpacityMaskFilter_11_" filterUnits="userSpaceOnUse" x="67.9" y="40" width="7.8" height="8">
				<feColorMatrix  type="matrix" values="1 0 0 0 0  0 1 0 0 0  0 0 1 0 0  0 0 0 1 0"/>
			</filter>
		</defs>
		<mask maskUnits="userSpaceOnUse" x="67.9" y="40" width="7.8" height="8" id="mask11_4_189_1_">
			
				<linearGradient id="SVGID_23_" gradientUnits="userSpaceOnUse" x1="107.2057" y1="-51.9994" x2="51.6435" y2="86.2473" gradientTransform="matrix(1 0 0 -1 0 80)">
				<stop  offset="0" style="stop-color:#FFA434"/>
				<stop  offset="1" style="stop-color:#FFA434"/>
			</linearGradient>
			<path class="st35" d="M71.8,48c2.2,0,3.9-1.8,3.9-4s-1.8-4-3.9-4c-2.2,0-3.9,1.8-3.9,4S69.7,48,71.8,48z"/>
		</mask>
		<g class="st36">
			
				<linearGradient id="SVGID_24_" gradientUnits="userSpaceOnUse" x1="107.2067" y1="-51.9994" x2="51.6444" y2="86.2473" gradientTransform="matrix(1 0 0 -1 0 80)">
				<stop  offset="0" style="stop-color:#FFA434"/>
				<stop  offset="1" style="stop-color:#FFA434"/>
			</linearGradient>
			<path class="st37" d="M71.8,48c2.2,0,3.9-1.8,3.9-4s-1.8-4-3.9-4c-2.2,0-3.9,1.8-3.9,4S69.7,48,71.8,48z"/>
		</g>
		<defs>
			<filter id="Adobe_OpacityMaskFilter_12_" filterUnits="userSpaceOnUse" x="0" y="60" width="7.8" height="8">
				<feColorMatrix  type="matrix" values="1 0 0 0 0  0 1 0 0 0  0 0 1 0 0  0 0 0 1 0"/>
			</filter>
		</defs>
		<mask maskUnits="userSpaceOnUse" x="0" y="60" width="7.8" height="8" id="mask12_4_189_1_">
			
				<linearGradient id="SVGID_25_" gradientUnits="userSpaceOnUse" x1="39.2769" y1="-72.0263" x2="-16.2851" y2="66.221" gradientTransform="matrix(1 0 0 -1 0 80)">
				<stop  offset="0" style="stop-color:#FFA434"/>
				<stop  offset="1" style="stop-color:#FFA434"/>
			</linearGradient>
			<path class="st38" d="M3.9,68c2.2,0,3.9-1.8,3.9-4c0-2.2-1.8-4-3.9-4C1.8,60,0,61.8,0,64C0,66.2,1.8,68,3.9,68z"/>
		</mask>
		<g class="st39">
			
				<linearGradient id="SVGID_26_" gradientUnits="userSpaceOnUse" x1="39.2769" y1="-72.0254" x2="-16.2851" y2="66.2214" gradientTransform="matrix(1 0 0 -1 0 80)">
				<stop  offset="0" style="stop-color:#FFA434"/>
				<stop  offset="1" style="stop-color:#FFA434"/>
			</linearGradient>
			<path class="st40" d="M3.9,68c2.2,0,3.9-1.8,3.9-4c0-2.2-1.8-4-3.9-4C1.8,60,0,61.8,0,64C0,66.2,1.8,68,3.9,68z"/>
		</g>
		<defs>
			<filter id="Adobe_OpacityMaskFilter_13_" filterUnits="userSpaceOnUse" x="22.6" y="60" width="7.8" height="8">
				<feColorMatrix  type="matrix" values="1 0 0 0 0  0 1 0 0 0  0 0 1 0 0  0 0 0 1 0"/>
			</filter>
		</defs>
		<mask maskUnits="userSpaceOnUse" x="22.6" y="60" width="7.8" height="8" id="mask13_4_189_1_">
			
				<linearGradient id="SVGID_27_" gradientUnits="userSpaceOnUse" x1="61.9195" y1="-72.0264" x2="6.3575" y2="66.221" gradientTransform="matrix(1 0 0 -1 0 80)">
				<stop  offset="0" style="stop-color:#FFA434"/>
				<stop  offset="1" style="stop-color:#FFA434"/>
			</linearGradient>
			<path class="st41" d="M26.6,68c2.2,0,3.9-1.8,3.9-4c0-2.2-1.8-4-3.9-4s-3.9,1.8-3.9,4C22.6,66.2,24.4,68,26.6,68z"/>
		</mask>
		<g class="st42">
			
				<linearGradient id="SVGID_28_" gradientUnits="userSpaceOnUse" x1="61.9194" y1="-72.0254" x2="6.3575" y2="66.2214" gradientTransform="matrix(1 0 0 -1 0 80)">
				<stop  offset="0" style="stop-color:#FFA434"/>
				<stop  offset="1" style="stop-color:#FFA434"/>
			</linearGradient>
			<path class="st43" d="M26.6,68c2.2,0,3.9-1.8,3.9-4c0-2.2-1.8-4-3.9-4s-3.9,1.8-3.9,4C22.6,66.2,24.4,68,26.6,68z"/>
		</g>
		<defs>
			<filter id="Adobe_OpacityMaskFilter_14_" filterUnits="userSpaceOnUse" x="45.3" y="60" width="7.8" height="8">
				<feColorMatrix  type="matrix" values="1 0 0 0 0  0 1 0 0 0  0 0 1 0 0  0 0 0 1 0"/>
			</filter>
		</defs>
		<mask maskUnits="userSpaceOnUse" x="45.3" y="60" width="7.8" height="8" id="mask14_4_189_1_">
			
				<linearGradient id="SVGID_29_" gradientUnits="userSpaceOnUse" x1="84.563" y1="-72.0264" x2="29.001" y2="66.221" gradientTransform="matrix(1 0 0 -1 0 80)">
				<stop  offset="0" style="stop-color:#FFA434"/>
				<stop  offset="1" style="stop-color:#FFA434"/>
			</linearGradient>
			<path class="st44" d="M49.2,68c2.2,0,3.9-1.8,3.9-4c0-2.2-1.8-4-3.9-4c-2.2,0-3.9,1.8-3.9,4C45.3,66.2,47,68,49.2,68z"/>
		</mask>
		<g class="st45">
			
				<linearGradient id="SVGID_30_" gradientUnits="userSpaceOnUse" x1="84.5639" y1="-72.0254" x2="29.002" y2="66.2214" gradientTransform="matrix(1 0 0 -1 0 80)">
				<stop  offset="0" style="stop-color:#FFA434"/>
				<stop  offset="1" style="stop-color:#FFA434"/>
			</linearGradient>
			<path class="st46" d="M49.2,68c2.2,0,3.9-1.8,3.9-4c0-2.2-1.8-4-3.9-4c-2.2,0-3.9,1.8-3.9,4C45.3,66.2,47,68,49.2,68z"/>
		</g>
		<defs>
			<filter id="Adobe_OpacityMaskFilter_15_" filterUnits="userSpaceOnUse" x="67.9" y="60" width="7.8" height="8">
				<feColorMatrix  type="matrix" values="1 0 0 0 0  0 1 0 0 0  0 0 1 0 0  0 0 0 1 0"/>
			</filter>
		</defs>
		<mask maskUnits="userSpaceOnUse" x="67.9" y="60" width="7.8" height="8" id="mask15_4_189_1_">
			
				<linearGradient id="SVGID_31_" gradientUnits="userSpaceOnUse" x1="107.2058" y1="-72.0264" x2="51.6436" y2="66.221" gradientTransform="matrix(1 0 0 -1 0 80)">
				<stop  offset="0" style="stop-color:#FFA434"/>
				<stop  offset="1" style="stop-color:#FFA434"/>
			</linearGradient>
			<path class="st47" d="M71.8,68c2.2,0,3.9-1.8,3.9-4c0-2.2-1.8-4-3.9-4c-2.2,0-3.9,1.8-3.9,4C67.9,66.2,69.7,68,71.8,68z"/>
		</mask>
		<g class="st48">
			
				<linearGradient id="SVGID_32_" gradientUnits="userSpaceOnUse" x1="107.2068" y1="-72.0254" x2="51.6445" y2="66.2214" gradientTransform="matrix(1 0 0 -1 0 80)">
				<stop  offset="0" style="stop-color:#FFA434"/>
				<stop  offset="1" style="stop-color:#FFA434"/>
			</linearGradient>
			<path class="st49" d="M71.8,68c2.2,0,3.9-1.8,3.9-4c0-2.2-1.8-4-3.9-4c-2.2,0-3.9,1.8-3.9,4C67.9,66.2,69.7,68,71.8,68z"/>
		</g>
	</g>
</g>
<g id="Layer_2">
	<rect x="38.9" y="51.1" class="st50" width="8.2" height="26.9"/>
	<ellipse class="st51" cx="43" cy="31" rx="18.4" ry="27.3"/>
	<g>
		<ellipse class="st52" cx="43" cy="31" rx="14.4" ry="21.4"/>
		<ellipse class="st53" cx="43" cy="31" rx="14.4" ry="21.4"/>
	</g>
</g>
</svg>
